<svg width="20" height="20" viewBox="0 0 20 20" fill="none" xmlns="http://www.w3.org/2000/svg">
<g clip-path="url(#clip0_2_344)">
<path d="M14.1665 1.66663H5.83322C3.53203 1.66663 1.66655 3.53211 1.66655 5.83329V14.1666C1.66655 16.4678 3.53203 18.3333 5.83322 18.3333H14.1665C16.4677 18.3333 18.3332 16.4678 18.3332 14.1666V5.83329C18.3332 3.53211 16.4677 1.66663 14.1665 1.66663Z" stroke="#1D1A1A" stroke-width="1.5" stroke-linecap="round" stroke-linejoin="round"/>
<path d="M13.3332 9.47501C13.4361 10.1685 13.3176 10.8769 12.9947 11.4992C12.6718 12.1215 12.1608 12.6262 11.5346 12.9414C10.9083 13.2566 10.1986 13.3663 9.50637 13.255C8.81415 13.1436 8.17468 12.8167 7.67891 12.321C7.18314 11.8252 6.85632 11.1857 6.74494 10.4935C6.63355 9.8013 6.74327 9.09159 7.05849 8.46532C7.3737 7.83905 7.87837 7.32812 8.5007 7.00521C9.12303 6.68229 9.83134 6.56383 10.5249 6.66667C11.2323 6.77158 11.8873 7.10123 12.393 7.60693C12.8987 8.11263 13.2283 8.76757 13.3332 9.47501Z" stroke="#1D1A1A" stroke-width="1.5" stroke-linecap="round" stroke-linejoin="round"/>
<path d="M14.5832 5.41663H14.5915" stroke="#1D1A1A" stroke-width="2" stroke-linecap="round" stroke-linejoin="round"/>
</g>
<defs>
<clipPath id="clip0_2_344">
<rect width="20" height="20" fill="white"/>
</clipPath>
</defs>
</svg>
