<svg width="32" height="32" viewBox="0 0 32 32" fill="none" xmlns="http://www.w3.org/2000/svg">
<g clip-path="url(#clip0_2_38)">
<path d="M20.1667 7.6665H11.8333C9.53215 7.6665 7.66667 9.53198 7.66667 11.8332V20.1665C7.66667 22.4677 9.53215 24.3332 11.8333 24.3332H20.1667C22.4679 24.3332 24.3333 22.4677 24.3333 20.1665V11.8332C24.3333 9.53198 22.4679 7.6665 20.1667 7.6665Z" stroke="#1D1A1A" stroke-width="1.5" stroke-linecap="round" stroke-linejoin="round"/>
<path d="M19.3333 15.4748C19.4362 16.1683 19.3177 16.8766 18.9948 17.4989C18.6719 18.1213 18.161 18.6259 17.5347 18.9412C16.9084 19.2564 16.1987 19.3661 15.5065 19.2547C14.8143 19.1433 14.1748 18.8165 13.679 18.3207C13.1833 17.825 12.8564 17.1855 12.7451 16.4933C12.6337 15.8011 12.7434 15.0913 13.0586 14.4651C13.3738 13.8388 13.8785 13.3279 14.5008 13.005C15.1231 12.682 15.8315 12.5636 16.525 12.6664C17.2324 12.7713 17.8874 13.101 18.3931 13.6067C18.8988 14.1124 19.2284 14.7673 19.3333 15.4748Z" stroke="#1D1A1A" stroke-width="1.5" stroke-linecap="round" stroke-linejoin="round"/>
<path d="M20.5833 11.4165H20.5917" stroke="#1D1A1A" stroke-width="2" stroke-linecap="round" stroke-linejoin="round"/>
</g>
<circle cx="16" cy="16" r="15.25" stroke="#1D1A1A" stroke-width="1.5"/>
<defs>
<clipPath id="clip0_2_38">
<rect width="20" height="20" fill="white" transform="translate(6 6)"/>
</clipPath>
</defs>
</svg>
