<svg width="32" height="32" viewBox="0 0 32 32" fill="none" xmlns="http://www.w3.org/2000/svg">
<path d="M19.3333 12.6665C20.6594 12.6665 21.9312 13.1933 22.8689 14.131C23.8066 15.0687 24.3333 16.3404 24.3333 17.6665V23.4998H21V17.6665C21 17.2245 20.8244 16.8006 20.5119 16.488C20.1993 16.1754 19.7754 15.9998 19.3333 15.9998C18.8913 15.9998 18.4674 16.1754 18.1548 16.488C17.8423 16.8006 17.6667 17.2245 17.6667 17.6665V23.4998H14.3333V17.6665C14.3333 16.3404 14.8601 15.0687 15.7978 14.131C16.7355 13.1933 18.0073 12.6665 19.3333 12.6665Z" stroke="#1D1A1A" stroke-width="1.5" stroke-linecap="round" stroke-linejoin="round"/>
<path d="M11 13.5H7.66666V23.5H11V13.5Z" stroke="#1D1A1A" stroke-width="1.5" stroke-linecap="round" stroke-linejoin="round"/>
<path d="M9.33332 10.9998C10.2538 10.9998 11 10.2536 11 9.33317C11 8.4127 10.2538 7.6665 9.33332 7.6665C8.41285 7.6665 7.66666 8.4127 7.66666 9.33317C7.66666 10.2536 8.41285 10.9998 9.33332 10.9998Z" stroke="#1D1A1A" stroke-width="1.5" stroke-linecap="round" stroke-linejoin="round"/>
<circle cx="16" cy="16" r="15.25" stroke="#1D1A1A" stroke-width="1.5"/>
</svg>
