<svg width="32" height="32" viewBox="0 0 32 32" fill="none" xmlns="http://www.w3.org/2000/svg">
<path d="M19.3333 12.666C20.6594 12.666 21.9312 13.1928 22.8689 14.1305C23.8066 15.0682 24.3333 16.3399 24.3333 17.666V23.4993H21V17.666C21 17.224 20.8244 16.8001 20.5119 16.4875C20.1993 16.1749 19.7754 15.9993 19.3333 15.9993C18.8913 15.9993 18.4674 16.1749 18.1548 16.4875C17.8423 16.8001 17.6667 17.224 17.6667 17.666V23.4993H14.3333V17.666C14.3333 16.3399 14.8601 15.0682 15.7978 14.1305C16.7355 13.1928 18.0073 12.666 19.3333 12.666Z" stroke="white" stroke-width="1.5" stroke-linecap="round" stroke-linejoin="round"/>
<path d="M11 13.4995H7.66666V23.4995H11V13.4995Z" stroke="white" stroke-width="1.5" stroke-linecap="round" stroke-linejoin="round"/>
<path d="M9.33332 10.9993C10.2538 10.9993 11 10.2532 11 9.33268C11 8.41221 10.2538 7.66602 9.33332 7.66602C8.41285 7.66602 7.66666 8.41221 7.66666 9.33268C7.66666 10.2532 8.41285 10.9993 9.33332 10.9993Z" stroke="white" stroke-width="1.5" stroke-linecap="round" stroke-linejoin="round"/>
<circle cx="16" cy="15.9995" r="15.25" stroke="white" stroke-width="1.5"/>
</svg>
