<svg width="20" height="20" viewBox="0 0 20 20" fill="none" xmlns="http://www.w3.org/2000/svg">
<g clip-path="url(#clip0_2_354)">
<path d="M13.3332 6.66663C14.6593 6.66663 15.9311 7.19341 16.8687 8.13109C17.8064 9.06877 18.3332 10.3405 18.3332 11.6666V17.5H14.9999V11.6666C14.9999 11.2246 14.8243 10.8007 14.5117 10.4881C14.1992 10.1756 13.7752 9.99996 13.3332 9.99996C12.8912 9.99996 12.4673 10.1756 12.1547 10.4881C11.8421 10.8007 11.6665 11.2246 11.6665 11.6666V17.5H8.33321V11.6666C8.33321 10.3405 8.85999 9.06877 9.79768 8.13109C10.7354 7.19341 12.0071 6.66663 13.3332 6.66663Z" stroke="#1D1A1A" stroke-width="1.5" stroke-linecap="round" stroke-linejoin="round"/>
<path d="M4.99988 7.5H1.66655V17.5H4.99988V7.5Z" stroke="#1D1A1A" stroke-width="1.5" stroke-linecap="round" stroke-linejoin="round"/>
<path d="M3.33321 4.99996C4.25369 4.99996 4.99988 4.25377 4.99988 3.33329C4.99988 2.41282 4.25369 1.66663 3.33321 1.66663C2.41274 1.66663 1.66655 2.41282 1.66655 3.33329C1.66655 4.25377 2.41274 4.99996 3.33321 4.99996Z" stroke="#1D1A1A" stroke-width="1.5" stroke-linecap="round" stroke-linejoin="round"/>
</g>
<defs>
<clipPath id="clip0_2_354">
<rect width="20" height="20" fill="white"/>
</clipPath>
</defs>
</svg>
