<svg width="32" height="32" viewBox="0 0 32 32" fill="none" xmlns="http://www.w3.org/2000/svg">
<path d="M23.3438 14.653C23.3438 16.5521 22.6845 18.2879 21.4886 19.5425C20.372 20.7112 18.8582 21.3843 17.3352 21.3843C15.8431 21.3843 14.8467 20.8913 14.2116 20.3746L13.312 24.2308C13.2776 24.3786 13.1946 24.5103 13.0766 24.6045C12.9586 24.6988 12.8125 24.75 12.6619 24.75C12.6103 24.7499 12.5587 24.744 12.5084 24.7323C12.4227 24.7125 12.3417 24.6758 12.2702 24.6244C12.1986 24.5729 12.1378 24.5077 12.0913 24.4325C12.0447 24.3573 12.0134 24.2735 11.9991 24.1861C11.9847 24.0986 11.9876 24.0092 12.0077 23.9229L14.6781 12.4797C14.7186 12.3058 14.826 12.1553 14.9765 12.0613C15.1271 11.9672 15.3085 11.9373 15.4809 11.9782C15.6533 12.019 15.8026 12.1272 15.8959 12.279C15.9892 12.4308 16.0188 12.6138 15.9783 12.7876L14.568 18.829C14.8317 19.1967 15.6078 20.0381 17.3352 20.0381C19.6327 20.0381 22.0085 18.0237 22.0085 14.653C22.0082 13.724 21.7959 12.8075 21.3881 11.9744C20.9804 11.1413 20.388 10.4139 19.6569 9.84844C18.9258 9.28301 18.0755 8.89469 17.1718 8.71352C16.268 8.53234 15.3351 8.56315 14.4451 8.80358C13.555 9.044 12.7318 9.4876 12.0389 10.1001C11.3461 10.7125 10.8022 11.4774 10.4494 12.3357C10.0966 13.1939 9.94426 14.1225 10.0042 15.0495C10.0642 15.9766 10.3348 16.8773 10.7951 17.6821C10.8782 17.8363 10.8982 18.0171 10.851 18.186C10.8038 18.3548 10.693 18.4985 10.5423 18.5862C10.3917 18.674 10.2129 18.6989 10.0443 18.6558C9.87559 18.6127 9.73029 18.5048 9.63931 18.3552C9.07637 17.3716 8.74537 16.2707 8.67189 15.1375C8.59842 14.0043 8.78445 12.8692 9.21559 11.8201C9.64674 10.771 10.3114 9.83587 11.1583 9.08716C12.0052 8.33845 13.0115 7.79618 14.0994 7.50227C15.1873 7.20837 16.3278 7.17071 17.4324 7.39222C18.5371 7.61373 19.5765 8.08846 20.4701 8.7797C21.3637 9.47095 22.0877 10.3602 22.586 11.3786C23.0842 12.397 23.3435 13.5174 23.3438 14.653Z" fill="#1D1A1A"/>
<circle cx="16" cy="16" r="15.25" stroke="#1D1A1A" stroke-width="1.5"/>
</svg>
