<svg width="20" height="20" viewBox="0 0 20 20" fill="none" xmlns="http://www.w3.org/2000/svg">
<path d="M17.3436 8.65303C17.3436 10.5521 16.6844 12.2879 15.4885 13.5425C14.3719 14.7112 12.8581 15.3843 11.3351 15.3843C9.84299 15.3843 8.84658 14.8913 8.21151 14.3746L7.3119 18.2308C7.27746 18.3786 7.19451 18.5103 7.0765 18.6045C6.95849 18.6988 6.81235 18.75 6.66181 18.75C6.61013 18.7499 6.55862 18.744 6.50826 18.7323C6.42258 18.7125 6.34162 18.6758 6.27004 18.6244C6.19846 18.5729 6.13766 18.5077 6.09114 18.4325C6.04461 18.3573 6.01328 18.2735 5.99894 18.1861C5.98459 18.0986 5.98752 18.0092 6.00755 17.9229L8.678 6.47965C8.71851 6.30581 8.82584 6.15532 8.9764 6.06127C9.12695 5.96722 9.30839 5.93733 9.48081 5.97817C9.65322 6.01901 9.80248 6.12723 9.89576 6.27903C9.98904 6.43083 10.0187 6.61377 9.97818 6.78761L8.56785 12.829C8.83155 13.1967 9.60765 14.0381 11.3351 14.0381C13.6325 14.0381 16.0084 12.0237 16.0084 8.65303C16.008 7.72399 15.7958 6.80748 15.388 5.97437C14.9802 5.14126 14.3879 4.41387 13.6568 3.84844C12.9257 3.28301 12.0754 2.89469 11.1716 2.71352C10.2679 2.53234 9.33496 2.56315 8.44493 2.80358C7.5549 3.044 6.73164 3.4876 6.03879 4.10006C5.34595 4.71252 4.8021 5.47744 4.44928 6.33567C4.09646 7.19391 3.94414 8.12246 4.00409 9.04952C4.06403 9.97659 4.33464 10.8773 4.795 11.6821C4.87804 11.8363 4.89809 12.0171 4.85087 12.186C4.80366 12.3548 4.69291 12.4985 4.54222 12.5862C4.39154 12.674 4.21282 12.6989 4.04414 12.6558C3.87547 12.6127 3.73017 12.5048 3.63919 12.3552C3.07625 11.3716 2.74524 10.2707 2.67177 9.13747C2.5983 8.00426 2.78433 6.8692 3.21547 5.82008C3.64662 4.77095 4.31132 3.83587 5.15818 3.08716C6.00503 2.33845 7.01134 1.79618 8.09928 1.50227C9.18722 1.20837 10.3276 1.17071 11.4323 1.39222C12.537 1.61373 13.5763 2.08846 14.47 2.7797C15.3636 3.47095 16.0875 4.36017 16.5858 5.37861C17.0841 6.39705 17.3434 7.5174 17.3436 8.65303Z" fill="#1D1A1A"/>
</svg>
