<svg width="32" height="32" viewBox="0 0 32 32" fill="none" xmlns="http://www.w3.org/2000/svg">
<path d="M23.3438 14.6525C23.3438 16.5516 22.6845 18.2874 21.4886 19.542C20.372 20.7107 18.8582 21.3839 17.3352 21.3839C15.8431 21.3839 14.8467 20.8908 14.2116 20.3742L13.312 24.2304C13.2776 24.3781 13.1946 24.5098 13.0766 24.604C12.9586 24.6983 12.8125 24.7496 12.6619 24.7495C12.6103 24.7495 12.5587 24.7435 12.5084 24.7318C12.4227 24.712 12.3417 24.6753 12.2702 24.6239C12.1986 24.5724 12.1378 24.5072 12.0913 24.432C12.0447 24.3568 12.0134 24.2731 11.9991 24.1856C11.9847 24.0982 11.9876 24.0087 12.0077 23.9224L14.6781 12.4792C14.7186 12.3053 14.826 12.1548 14.9765 12.0608C15.1271 11.9667 15.3085 11.9368 15.4809 11.9777C15.6533 12.0185 15.8026 12.1267 15.8959 12.2785C15.9892 12.4303 16.0188 12.6133 15.9783 12.7871L14.568 18.8285C14.8317 19.1962 15.6078 20.0376 17.3352 20.0376C19.6327 20.0376 22.0085 18.0232 22.0085 14.6525C22.0082 13.7235 21.7959 12.807 21.3881 11.9739C20.9804 11.1408 20.388 10.4134 19.6569 9.84795C18.9258 9.28252 18.0755 8.89421 17.1718 8.71303C16.268 8.53185 15.3351 8.56267 14.4451 8.80309C13.555 9.04352 12.7318 9.48711 12.0389 10.0996C11.3461 10.712 10.8022 11.477 10.4494 12.3352C10.0966 13.1934 9.94426 14.122 10.0042 15.049C10.0642 15.9761 10.3348 16.8769 10.7951 17.6816C10.8782 17.8358 10.8982 18.0166 10.851 18.1855C10.8038 18.3544 10.693 18.498 10.5423 18.5857C10.3917 18.6735 10.2129 18.6985 10.0443 18.6553C9.87559 18.6122 9.73029 18.5043 9.63931 18.3548C9.07637 17.3712 8.74537 16.2702 8.67189 15.137C8.59842 14.0038 8.78445 12.8687 9.21559 11.8196C9.64674 10.7705 10.3114 9.83539 11.1583 9.08668C12.0052 8.33797 13.0115 7.79569 14.0994 7.50178C15.1873 7.20788 16.3278 7.17023 17.4324 7.39173C18.5371 7.61324 19.5765 8.08797 20.4701 8.77922C21.3637 9.47046 22.0877 10.3597 22.586 11.3781C23.0842 12.3966 23.3435 13.5169 23.3438 14.6525Z" fill="white"/>
<circle cx="16" cy="15.9995" r="15.25" stroke="white" stroke-width="1.5"/>
</svg>
