<svg width="20" height="20" viewBox="0 0 20 20" fill="none" xmlns="http://www.w3.org/2000/svg">
<path d="M7.47905 6.80496C8.34446 5.93996 9.12405 5.57871 10.284 5.57871C11.444 5.57871 14.0874 5.98704 13.7195 10.1975C13.3515 14.4075 10.7453 14.2712 10.284 14.2712C8.56946 14.2712 7.20697 13.5766 7.20697 11.8325C7.20697 9.43538 9.9728 9.31163 10.899 9.31163C13.1607 9.31163 16.9074 9.99996 16.9074 13.7808C16.9074 18.3862 11.499 18.9583 10.0953 18.9583C6.71613 18.9583 2.32905 17.2416 2.32905 9.70704C2.32905 2.17246 7.99321 1.04163 10.284 1.04163C12.5749 1.04163 15.8107 1.37538 17.6707 6.38246" stroke="#1D1A1A" stroke-width="1.5" stroke-linecap="round" stroke-linejoin="round"/>
</svg>
