<svg width="32" height="32" viewBox="0 0 32 32" fill="none" xmlns="http://www.w3.org/2000/svg">
<path d="M13.4792 12.8048C14.3446 11.9398 15.1242 11.5786 16.2842 11.5786C17.4442 11.5786 20.0875 11.9869 19.7196 16.1973C19.3517 20.4073 16.7454 20.2711 16.2842 20.2711C14.5696 20.2711 13.2071 19.5765 13.2071 17.8323C13.2071 15.4353 15.9729 15.3115 16.8992 15.3115C19.1608 15.3115 22.9075 15.9998 22.9075 19.7807C22.9075 24.3861 17.4992 24.9582 16.0954 24.9582C12.7162 24.9582 8.32916 23.2415 8.32916 15.7069C8.32916 8.17234 13.9933 7.0415 16.2842 7.0415C18.575 7.0415 21.8108 7.37525 23.6708 12.3823" stroke="#1D1A1A" stroke-width="1.5" stroke-linecap="round" stroke-linejoin="round"/>
<circle cx="16" cy="16" r="15.25" stroke="#1D1A1A" stroke-width="1.5"/>
</svg>
