<svg width="32" height="32" viewBox="0 0 32 32" fill="none" xmlns="http://www.w3.org/2000/svg">
<g clip-path="url(#clip0_2_631)">
<path d="M13.4792 12.8043C14.3446 11.9393 15.1242 11.5781 16.2842 11.5781C17.4442 11.5781 20.0875 11.9864 19.7196 16.1968C19.3517 20.4068 16.7454 20.2706 16.2842 20.2706C14.5696 20.2706 13.2071 19.576 13.2071 17.8318C13.2071 15.4348 15.9729 15.311 16.8992 15.311C19.1608 15.311 22.9075 15.9993 22.9075 19.7802C22.9075 24.3856 17.4992 24.9577 16.0954 24.9577C12.7162 24.9577 8.32916 23.241 8.32916 15.7064C8.32916 8.17185 13.9933 7.04102 16.2842 7.04102C18.575 7.04102 21.8108 7.37477 23.6708 12.3818" stroke="white" stroke-width="1.5" stroke-linecap="round" stroke-linejoin="round"/>
</g>
<circle cx="16" cy="15.9995" r="15.25" stroke="white" stroke-width="1.5"/>
<defs>
<clipPath id="clip0_2_631">
<rect width="20" height="20" fill="white" transform="translate(6 5.99951)"/>
</clipPath>
</defs>
</svg>
