<svg width="32" height="32" viewBox="0 0 32 32" fill="none" xmlns="http://www.w3.org/2000/svg">
<path d="M25.1667 8.49959C24.3687 9.06249 23.4851 9.49302 22.55 9.77459C22.0481 9.19752 21.3811 8.7885 20.6392 8.60286C19.8973 8.41722 19.1163 8.46392 18.4017 8.73664C17.6872 9.00935 17.0737 9.49493 16.6442 10.1277C16.2146 10.7605 15.9898 11.5099 16 12.2746V13.1079C14.5355 13.1459 13.0844 12.8211 11.7759 12.1625C10.4673 11.5038 9.34194 10.5318 8.50001 9.33292C8.50001 9.33292 5.16668 16.8329 12.6667 20.1663C10.9505 21.3312 8.90597 21.9154 6.83334 21.8329C14.3333 25.9996 23.5 21.8329 23.5 12.2496C23.4992 12.0175 23.4769 11.7859 23.4333 11.5579C24.2838 10.7192 24.884 9.66018 25.1667 8.49959Z" stroke="white" stroke-width="1.5" stroke-linecap="round" stroke-linejoin="round"/>
<circle cx="16" cy="15.9995" r="15.25" stroke="white" stroke-width="1.5"/>
</svg>
