<svg width="20" height="20" viewBox="0 0 20 20" fill="none" xmlns="http://www.w3.org/2000/svg">
<g clip-path="url(#clip0_2_350)">
<path d="M19.1665 2.49996C18.3685 3.06285 17.485 3.49338 16.5499 3.77496C16.048 3.19788 15.381 2.78887 14.6391 2.60323C13.8972 2.41759 13.1161 2.46429 12.4016 2.737C11.6871 3.00972 11.0736 3.49529 10.644 4.12805C10.2145 4.76082 9.98963 5.51024 9.99988 6.27496V7.10829C8.53541 7.14626 7.08427 6.82147 5.77572 6.16283C4.46716 5.50419 3.34181 4.53215 2.49988 3.33329C2.49988 3.33329 -0.833457 10.8333 6.66654 14.1666C4.95032 15.3316 2.90584 15.9157 0.83321 15.8333C8.33321 20 17.4999 15.8333 17.4999 6.24996C17.4991 6.01783 17.4768 5.78629 17.4332 5.55829C18.2837 4.71953 18.8839 3.66055 19.1665 2.49996Z" stroke="#1D1A1A" stroke-width="1.5" stroke-linecap="round" stroke-linejoin="round"/>
</g>
<defs>
<clipPath id="clip0_2_350">
<rect width="20" height="20" fill="white"/>
</clipPath>
</defs>
</svg>
